# xmcd
#
# Track frame offsets:
#	150
#	37023
#	64635
#	104104
#	155573
#	236908
#	292809
#
# Disc length: 3926 seconds
#
# Revision: 1
# Processed by: cddbd v1.5.2PL0 Copyright (c) Steve Scherf et al.
# Submitted via: audiograbber 1.83.01
#
DISCID=630f5407
DTITLE=Grateful Dead - 95-03-26 The Omni, Atlanta GA
DYEAR=1900
DGENRE=
TTITLE0=Samson and Delilah
TTITLE1=It's All Too Much
TTITLE2=Crazy Fingers
TTITLE3=Estimated Prophet
TTITLE4=Terrapin Station
TTITLE5=Drums
TTITLE6=Drums
EXTD=
EXTT0=
EXTT1=
EXTT2=
EXTT3=
EXTT4=
EXTT5=
EXTT6=
PLAYORDER=
